<svg xmlns="http://www.w3.org/2000/svg" xmlns:xlink="http://www.w3.org/1999/xlink" width="442" height="442" viewBox="0 0 442 442">
  <defs>
    <clipPath id="clip-path">
      <rect id="Rectangle_133" data-name="Rectangle 133" width="442" height="442" transform="translate(0.285 0.284)" fill="none"/>
    </clipPath>
  </defs>
  <g id="Group_1162" data-name="Group 1162" transform="translate(0.348 0.067)">
    <g id="Group_317" data-name="Group 317" transform="translate(-0.632 -0.352)" clip-path="url(#clip-path)">
      <path id="Path_490" data-name="Path 490" d="M218.668,179.292c.805-.4,16.207-8.493,17.544-26.1,1.3-17.1-11.856-27.322-12.739-27.985q3.623-41.958,7.233-83.9a41.6,41.6,0,0,0-8.934-20.271,43.7,43.7,0,0,0-14.583-11.22A52.588,52.588,0,0,0,188.32,5.319c-24-.792-43.321,22.44-44.84,24.323-7.389-1.558-20.44-3.052-32.53,3.532-7.181,3.909-12.181,9.662-23.8,30.816-6,10.9-13.622,25.66-21.583,43.789a54.149,54.149,0,0,0-15.843-.61A48.01,48.01,0,0,0,22.9,119.219C19.931,121.907,8.62,132.542,7.659,149.7a44.09,44.09,0,0,0,6.532,25.076C24.424,191.966,42.4,196.732,46.5,197.706L23.866,240.6a40.826,40.826,0,0,0-2.35,22.466c.636,3.493,2.558,14.077,11.752,21.674,10.4,8.6,23.167,7.441,27.426,7.051,26.271-2.363,40.516-29.024,42-31.88h21.985c.247,3.169,2,21.816,17.791,33.634,14.557,10.908,34.166,11.077,47.723,3.753a41.148,41.148,0,0,0,10.259-8.077c12.363-13.259,12.739-30.1,14.882-64.021.61-9.636,1.688-25.569,3.337-45.905" transform="translate(92.052 63.755)" fill="#fff"/>
      <path id="Path_491" data-name="Path 491" d="M32.934,225.57l-1.844-.156A13.541,13.541,0,0,1,18.7,210.792L34.4,21.3A13.561,13.561,0,0,1,49.036,8.913l1.844.156A13.552,13.552,0,0,1,63.269,23.7l-15.7,189.478A13.561,13.561,0,0,1,32.934,225.57" transform="translate(224.557 106.495)" fill="#fe1295"/>
      <path id="Path_492" data-name="Path 492" d="M10.154,31.024V29.167A13.57,13.57,0,0,1,23.711,15.6H155.025a13.578,13.578,0,0,1,13.557,13.57v1.857a13.567,13.567,0,0,1-13.557,13.557H23.711A13.559,13.559,0,0,1,10.154,31.024" transform="translate(122.685 187.181)" fill="#fe1295"/>
      <path id="Path_493" data-name="Path 493" d="M19.283,205.693l-1.649-.857a13.577,13.577,0,0,1-5.779-18.284L99.536,17.838a13.565,13.565,0,0,1,18.271-5.779l1.662.857a13.565,13.565,0,0,1,5.779,18.271L37.567,199.914a13.554,13.554,0,0,1-18.284,5.779" transform="translate(124.814 126.516)" fill="#fe1295"/>
    </g>
  </g>
</svg>
