<svg
        xmlns="http://www.w3.org/2000/svg"
        width="639"
        height="250"
        viewBox="0 0 639 250"
      >
        <defs>
          <clipPath id="clip-path">
            <rect
              id="Rectangle_152"
              data-name="Rectangle 152"
              width="639"
              height="250"
              transform="translate(-0.036 -0.222)"
              fill="none"
            />
          </clipPath>
          <clipPath id="clip-path-2">
            <rect
              id="Rectangle_151"
              data-name="Rectangle 151"
              width="639"
              height="250"
              transform="translate(-0.036 -0.221)"
              fill="none"
            />
          </clipPath>
          <clipPath id="clip-path-3">
            <rect
              id="Rectangle_147"
              data-name="Rectangle 147"
              width="2"
              height="1"
              transform="translate(-0.396 0.072)"
              fill="none"
            />
          </clipPath>
          <clipPath id="clip-path-4">
            <rect
              id="Rectangle_148"
              data-name="Rectangle 148"
              width="2"
              height="2"
              transform="translate(-0.312 -0.294)"
              fill="none"
            />
          </clipPath>
          <clipPath id="clip-path-5">
            <rect
              id="Rectangle_149"
              data-name="Rectangle 149"
              width="1"
              height="2"
              transform="translate(0.364 -0.2)"
              fill="none"
            />
          </clipPath>
          <clipPath id="clip-path-6">
            <rect
              id="Rectangle_150"
              data-name="Rectangle 150"
              width="2"
              height="2"
              transform="translate(-0.444 -0.205)"
              fill="none"
            />
          </clipPath>
        </defs>
        <g
          id="Group_336"
          data-name="Group 336"
          transform="translate(0.036 0.222)"
        >
          <g id="Group_335" data-name="Group 335" clip-path="url(#clip-path)">
            <g
              id="Group_334"
              data-name="Group 334"
              transform="translate(0 -0.001)"
            >
              <g
                id="Group_333"
                data-name="Group 333"
                clip-path="url(#clip-path-2)"
              >
                <path
                  id="Path_498"
                  data-name="Path 498"
                  d="M616.958,116.778c2.66.893,9.273,2.671,14,9,5.542,7.435,5.087,15.874,5,19-.34,13.4-9.234,22.846-16,30a85.319,85.319,0,0,1-45,25,84.318,84.318,0,0,1-37-1c-.621,24.179-15.169,43.652-35,49-19.617,5.28-35.758-6.078-37-7-16.734-12.279-22.959-36.452-15-60-4.523,4.591-19.267,17.544-41,20-11.522,1.291-21.079-.127-27-2-.175,1.058-3.509,20.234-21,27-9.289,3.591-21.992,2.678-29-4-10.075-9.61-11.22-29.945,3-45,1.873-1.98-7.6,6.349-15,5a10.427,10.427,0,0,1-5-2c-1.883,11.124-10.245,19.34-20,20-10.454.7-17.243-8.088-18-9-3.815,8.814-12.779,14.893-22,15-11.978.136-18.388-9.136-19-10-2.291,15.472-14.148,26.563-27,28-10.92,1.213-23.661-4.323-27-14-2.31-6.756.388-15.107,1-17a45.491,45.491,0,0,1,4-9c2.669-4.8,6.117-8.457,8-11h-21v5c-.252,1.34-2.594,11.72-12,17-8.581,4.834-16.583,1.447-18,1a23.341,23.341,0,0,1-13-10c-7.775,12.881-23.905,16.814-35,11-8.328-4.368-13.524-13.546-13-24h-22c-.883,1.553-11.751,19.9-29,20-2.271.01-8.322.3-14-4a24.639,24.639,0,0,1-9-14,26.508,26.508,0,0,1,2-17c3.659-8.241,7.622-17.478,12-26,1.291-2.514,2.67-4.554,4-7-1.815-.107-15.041-1.507-23-13a28.474,28.474,0,0,1-5-18,31.751,31.751,0,0,1,9-20c11.784-11.473,28.457-8.33,30-8,5.581-12.687,10.807-22.38,15-30,8.134-14.8,11.991-19.263,17-22,8.474-4.611,17.826-3.087,23-2,9.056-10.4,22.478-14.484,34-10,.427.165.592.816,1,1a25.87,25.87,0,0,1,15,26c-1.427,16.317-2.573,32.683-4,49a42.424,42.424,0,0,1,20-9c17.142-2.7,30.137,5.913,33,8,4.145,3.417,8.875,6.593,13,10-6.824-21.335,3.034-44.332,23-53,19.015-8.26,42.41-.88,54,17a35.71,35.71,0,0,1,23-1c3.65,1.126,17.05,5.935,22,19a29.391,29.391,0,0,1,2,12,60.563,60.563,0,0,1,22,7,66.453,66.453,0,0,1,13,9c.553-6.581,3.283-35.205,12-42a5.017,5.017,0,0,0,1-1c7.29-4.679,14.894-4.942,19-5,7.212-.107,33.338-.223,70,1a22.263,22.263,0,0,1,13,9,24.062,24.062,0,0,1,4,17c2.495.058,4.505-.058,7,0a27.553,27.553,0,0,1,4-15c5.8-9.707,15.515-12.058,19-13a37.883,37.883,0,0,1,25,2h75c1,.136,17.283,2.246,23,16,.679,1.631,3.951,10.448,0,19-3.737,8.066-12.954,13.049-23,13a21.506,21.506,0,0,1,3,19"
                  transform="translate(0.007 0)"
                  fill="#fff"
                />
                <path
                  id="Path_499"
                  data-name="Path 499"
                  d="M19.18,154.562h0a9.987,9.987,0,0,1-9-11l11-131c.466-5.581,5.419-10.466,11-10a10,10,0,0,1,9,11l-11,131c-.466,5.572-5.419,10.466-11,10"
                  transform="translate(88.784 24.217)"
                  fill="#fe1295"
                />
                <path
                  id="Path_500"
                  data-name="Path 500"
                  d="M34.786,103.77h0a10,10,0,0,0,11-9l8-74c.621-5.562-3.438-11.379-9-12a9.992,9.992,0,0,0-11,9l-8,75a9.992,9.992,0,0,0,9,11"
                  transform="translate(222.179 79.009)"
                  fill="#fe1295"
                />
                <path
                  id="Path_501"
                  data-name="Path 501"
                  d="M48.318,96.622h0a10,10,0,0,0,11-9l8-67a10,10,0,0,0-9-11c-5.562-.621-10.379,2.438-11,8l-8,68a9.992,9.992,0,0,0,9,11"
                  transform="translate(344.646 79.157)"
                  fill="#fe1295"
                />
                <path
                  id="Path_502"
                  data-name="Path 502"
                  d="M58.924,102.572h0a9.992,9.992,0,0,0,11-9l8-68a10.05,10.05,0,0,0-20-2l-8,67c-.621,5.562,3.428,11.379,9,12"
                  transform="translate(437.04 126.207)"
                  fill="#fe1295"
                />
                <path
                  id="Path_503"
                  data-name="Path 503"
                  d="M23.654,99.666h0a9.992,9.992,0,0,1-9-11l8-71a9.992,9.992,0,0,1,11-9c5.562.621,9.621,6.438,9,12l-8,70a10,10,0,0,1-11,9"
                  transform="translate(126.311 79.113)"
                  fill="#fe1295"
                />
                <path
                  id="Path_504"
                  data-name="Path 504"
                  d="M40.333,17.105h0a9.9,9.9,0,0,1,10-10h55a9.908,9.908,0,0,1,10,10,9.908,9.908,0,0,1-10,10h-55a9.9,9.9,0,0,1-10-10"
                  transform="translate(349.631 57.673)"
                  fill="#fe1295"
                />
                <path
                  id="Path_505"
                  data-name="Path 505"
                  d="M2.488,18.748h0a9.9,9.9,0,0,1,10-10h90c5.6,0,11,4.4,11,10s-5.4,11-11,11h-90c-5.6,0-10-5.4-10-11"
                  transform="translate(19.477 79.031)"
                  fill="#fe1295"
                />
                <path
                  id="Path_506"
                  data-name="Path 506"
                  d="M67.457,115.164c-2.2,0-5.146-.525-7-2-4.4-3.465-4.465-9.6-1-14a41.562,41.562,0,0,0,9-26,42.084,42.084,0,0,0-42-42,10,10,0,0,1,0-20,61.921,61.921,0,0,1,62,62,59.772,59.772,0,0,1-13,38,10.349,10.349,0,0,1-8,4"
                  transform="translate(140.507 93.614)"
                  fill="#fe1295"
                />
                <path
                  id="Path_507"
                  data-name="Path 507"
                  d="M38.059,99.666h0a9.985,9.985,0,0,1-9-11l8-71a9.986,9.986,0,0,1,11-9c5.562.621,9.631,6.438,9,12l-8,70a9.992,9.992,0,0,1-11,9"
                  transform="translate(254.905 79.113)"
                  fill="#fe1295"
                />
                <path
                  id="Path_508"
                  data-name="Path 508"
                  d="M81.861,115.164a9.11,9.11,0,0,1-6-2c-4.4-3.465-5.465-9.613-2-14a41.563,41.563,0,0,0,9-26,42.084,42.084,0,0,0-42-42,10,10,0,0,1,0-20,61.921,61.921,0,0,1,62,62,59.753,59.753,0,0,1-13,38,10.349,10.349,0,0,1-8,4"
                  transform="translate(269.104 93.614)"
                  fill="#fe1295"
                />
                <path
                  id="Path_509"
                  data-name="Path 509"
                  d="M57.961,61.326c-3.058,0-6.913.466-10,0-5.533-.835-8.825-6.467-8-12a9.289,9.289,0,0,1,11-8c17.715,2.66,35.73-6.11,44-22,2.582-4.96,8.03-7.582,13-5s7.582,9.04,5,14c-10.823,20.8-32.073,33-55,33"
                  transform="translate(345.003 117.453)"
                  fill="#fe1295"
                />
                <path
                  id="Path_510"
                  data-name="Path 510"
                  d="M76.03,81.108c-9.056,0-18.691-4.5-26-13a9.782,9.782,0,0,1,1-14c4.242-3.65,11.35-3.242,15,1,2.077,2.4,5.729,6.408,10,6,8.833-.806,17.155-19.481,15-43-.514-5.591,4.428-10.486,10-11a10,10,0,0,1,11,9c1.427,15.56-.681,30.139-6,42-6.173,13.783-16.4,21.932-28,23a17.182,17.182,0,0,1-2,0"
                  transform="translate(416.935 57.671)"
                  fill="#fe1295"
                />
                <path
                  id="Path_511"
                  data-name="Path 511"
                  d="M33.246,43.126a9.942,9.942,0,0,1-9-6,9.66,9.66,0,0,1,5-13,19.4,19.4,0,0,0,8-8c.621-1.107,1.67-1.787,2-3a9.823,9.823,0,1,1,19,5,34.679,34.679,0,0,1-3,8,37.612,37.612,0,0,1-17,16,13.912,13.912,0,0,1-5,1"
                  transform="translate(203.718 46.653)"
                  fill="#fe1295"
                />
                <path
                  id="Path_512"
                  data-name="Path 512"
                  d="M54.452,39.13a39.17,39.17,0,0,1-4,0,10.05,10.05,0,0,1,2-20,24.527,24.527,0,0,0,14-3,22.084,22.084,0,0,0,4-3,9.734,9.734,0,0,1,14,0c3.922,4,4,11.088,0,15-2.291,2.242-5.156,3.379-8,5a46.008,46.008,0,0,1-22,6"
                  transform="translate(356.512 90.649)"
                  fill="#fe1295"
                />
                <path
                  id="Path_513"
                  data-name="Path 513"
                  d="M64.463,96.622h0c5.562.621,11.369-3.438,12-9l7-67a10,10,0,0,0-9-11c-5.562-.621-10.379,2.438-11,8l-8,68a9.992,9.992,0,0,0,9,11"
                  transform="translate(485.501 79.157)"
                  fill="#fe1295"
                />
                <path
                  id="Path_514"
                  data-name="Path 514"
                  d="M56.478,17.105h0a9.9,9.9,0,0,1,10-10h55a9.908,9.908,0,0,1,10,10,9.908,9.908,0,0,1-10,10h-55a9.9,9.9,0,0,1-10-10"
                  transform="translate(490.486 57.673)"
                  fill="#fe1295"
                />
                <path
                  id="Path_515"
                  data-name="Path 515"
                  d="M74.106,61.326c-3.058,0-6.913.466-10,0-5.533-.835-8.825-6.467-8-12a9.3,9.3,0,0,1,11-8c17.715,2.66,35.73-6.11,44-22,2.582-4.96,8.03-7.582,13-5s7.582,9.04,5,14c-10.823,20.8-32.073,33-55,33"
                  transform="translate(485.858 117.453)"
                  fill="#fe1295"
                />
                <path
                  id="Path_516"
                  data-name="Path 516"
                  d="M70.6,39.13a39.17,39.17,0,0,1-4,0,10.05,10.05,0,0,1,2-20,24.527,24.527,0,0,0,14-3,22.08,22.08,0,0,0,4-3,9.734,9.734,0,0,1,14,0c3.912,4,4,11.079,0,15-2.291,2.242-5.156,3.379-8,5a46.008,46.008,0,0,1-22,6"
                  transform="translate(497.367 90.649)"
                  fill="#fe1295"
                />
                <path
                  id="Path_517"
                  data-name="Path 517"
                  d="M42.626,55.443a11.255,11.255,0,0,1-9-5,10.116,10.116,0,0,1,3-14c2.64-1.689,7.68-5.341,10-11a14.746,14.746,0,0,0,1-4c.738-5.542,6.458-9.728,12-9s8.728,5.448,8,11c-.417,3.174-.758,6.981-2,10-4.213,10.27-12.322,16.36-18,20-1.7,1.087-3.127,2-5,2"
                  transform="translate(282.338 107.336)"
                  fill="#fe1295"
                />
                <path
                  id="Path_518"
                  data-name="Path 518"
                  d="M74.025,57.507a9.2,9.2,0,0,1-4-1c-5.271-2.427-13.088-7.225-18-16a34.846,34.846,0,0,1-3-8,9.823,9.823,0,1,1,19-5c.33,1.213,1.388,1.893,2,3a19.453,19.453,0,0,0,8,8,9.66,9.66,0,0,1,5,13,9.942,9.942,0,0,1-9,6"
                  transform="translate(422.94 172.271)"
                  fill="#fe1295"
                />
                <path
                  id="Path_519"
                  data-name="Path 519"
                  d="M42.105,45.387a9.2,9.2,0,0,1-4-1,23.519,23.519,0,0,1-11-10,29.239,29.239,0,0,1-2-6,9.6,9.6,0,0,1,7-12,9.6,9.6,0,0,1,12,7c.068.243.874.777,1,1,.524.942,1.486.757,2,1a10.8,10.8,0,0,1,5,14c-1.708,3.708-6.166,6-10,6"
                  transform="translate(213.859 139.392)"
                  fill="#fe1295"
                />
                <path
                  id="Path_520"
                  data-name="Path 520"
                  d="M7.833,140.806h0c-4.97-2.582-6.582-9.03-4-14l60-117c2.582-4.96,9.04-6.582,14-4s6.582,8.03,4,13l-60,117c-2.582,4.97-9.03,7.582-14,5"
                  transform="translate(21.131 37.972)"
                  fill="#fe1295"
                />
                <g
                  id="Group_323"
                  data-name="Group 323"
                  transform="translate(166.36 85.706)"
                  opacity="0"
                >
                  <g id="Group_322" data-name="Group 322">
                    <g
                      id="Group_321"
                      data-name="Group 321"
                      clip-path="url(#clip-path-3)"
                    >
                      <path
                        id="Path_521"
                        data-name="Path 521"
                        d="M18.741,8.9c.087.369-.641.913-1,1s-.913.359-1,0,.641-.913,1-1,.913-.369,1,0"
                        transform="translate(-17.137 -8.826)"
                        fill="#fe1295"
                      />
                    </g>
                  </g>
                </g>
                <g
                  id="Group_326"
                  data-name="Group 326"
                  transform="translate(404.276 59.072)"
                  opacity="0"
                >
                  <g id="Group_325" data-name="Group 325">
                    <g
                      id="Group_324"
                      data-name="Group 324"
                      clip-path="url(#clip-path-4)"
                    >
                      <path
                        id="Path_522"
                        data-name="Path 522"
                        d="M43.342,6.789c.087.369-.641.913-1,1s-.913-.641-1-1,.641-.913,1-1,.913.631,1,1"
                        transform="translate(-41.654 -6.083)"
                        fill="#fe1295"
                      />
                    </g>
                  </g>
                </g>
                <g
                  id="Group_329"
                  data-name="Group 329"
                  transform="translate(477.601 185.978)"
                  opacity="0"
                >
                  <g id="Group_328" data-name="Group 328">
                    <g
                      id="Group_327"
                      data-name="Group 327"
                      clip-path="url(#clip-path-5)"
                    >
                      <path
                        id="Path_523"
                        data-name="Path 523"
                        d="M50.563,18.964a.734.734,0,0,1,0,1,.707.707,0,0,1-1-1,.734.734,0,0,1,1,0"
                        transform="translate(-49.2 -19.163)"
                        fill="#fe1295"
                      />
                    </g>
                  </g>
                </g>
                <g
                  id="Group_332"
                  data-name="Group 332"
                  transform="translate(234.409 164.983)"
                  opacity="0"
                >
                  <g id="Group_331" data-name="Group 331">
                    <g
                      id="Group_330"
                      data-name="Group 330"
                      clip-path="url(#clip-path-6)"
                    >
                      <path
                        id="Path_524"
                        data-name="Path 524"
                        d="M23.709,17.794c-.019-.369.631-.981,1-1s.981.631,1,1c.039.379-.612.981-1,1-.369.029-.971-.631-1-1"
                        transform="translate(-24.154 -16.998)"
                        fill="#fe1295"
                      />
                    </g>
                  </g>
                </g>
              </g>
            </g>
          </g>
        </g>
      </svg>