<svg xmlns="http://www.w3.org/2000/svg" xmlns:xlink="http://www.w3.org/1999/xlink" width="2182" height="1157" viewBox="0 0 2182 1157">
  <defs>
    <clipPath id="clip-path">
      <rect id="Rectangle_410" data-name="Rectangle 410" width="2128.351" height="1051.889" transform="translate(0 0.001)" fill="none"/>
    </clipPath>
  </defs>
  <g id="Group_850" data-name="Group 850" transform="translate(258 -6269)">
    <g id="Group_808" data-name="Group 808" transform="translate(-86 1593)">
      <circle id="Ellipse_46" data-name="Ellipse 46" cx="205.5" cy="205.5" r="205.5" transform="translate(907 5422)" fill="#fe1195"/>
      <circle id="Ellipse_47" data-name="Ellipse 47" cx="205.5" cy="205.5" r="205.5" transform="translate(1446 5422)" fill="#fe1195"/>
      <circle id="Ellipse_48" data-name="Ellipse 48" cx="205.5" cy="205.5" r="205.5" transform="translate(367 5422)" fill="#fe1195"/>
      <circle id="Ellipse_49" data-name="Ellipse 49" cx="205.5" cy="205.5" r="205.5" transform="translate(-172 5422)" fill="#fe1195"/>
    </g>
    <g id="Group_809" data-name="Group 809" transform="translate(-74 1593)">
      <circle id="Ellipse_51" data-name="Ellipse 51" cx="205.5" cy="205.5" r="205.5" transform="translate(500 4676)" fill="#fe1195"/>
      <circle id="Ellipse_50" data-name="Ellipse 50" cx="205.5" cy="205.5" r="205.5" transform="translate(-44 4676)" fill="#fe1195"/>
      <circle id="Ellipse_52" data-name="Ellipse 52" cx="205.5" cy="205.5" r="205.5" transform="translate(1043 4676)" fill="#fe1195"/>
      <circle id="Ellipse_53" data-name="Ellipse 53" cx="205.5" cy="205.5" r="205.5" transform="translate(1587 4676)" fill="#fe1195"/>
    </g>
    <rect id="Rectangle_418" data-name="Rectangle 418" width="1805" height="1078" transform="translate(0 6305)" fill="#fe1295"/>
    <g id="Group_807" data-name="Group 807" transform="translate(-241 6322.999)" opacity="0.323">
      <g id="Group_796" data-name="Group 796" clip-path="url(#clip-path)">
        <path id="Path_1485" data-name="Path 1485" d="M1662.045,943.908c-22.983-48.086-17.655-108.027,11.962-152.159a152.4,152.4,0,0,1,36.25-38.189,221.147,221.147,0,0,0-17.93,19.065c-16.382,20.027-28.713,43.661-34.906,68.827-8.642,33.7-6.626,69.487,4.624,102.456" fill="#fff"/>
        <path id="Path_1486" data-name="Path 1486" d="M1884.369,1025.752c-45.6,22.106-101.9,18.763-145.487-6.722a154.375,154.375,0,0,1-46.95-42.423c24.359,26.872,56.47,46.682,91.84,54.942a180.835,180.835,0,0,0,100.6-5.8" fill="#fff"/>
        <path id="Path_1487" data-name="Path 1487" d="M1887.554,549.644c43.991-21.743,98.669-19.813,141.687,3.56a152.382,152.382,0,0,1,50.214,43.019A193.03,193.03,0,0,0,2038.7,563.3c-45.453-27.187-101.432-31.682-151.151-13.661" fill="#fff"/>
        <path id="Path_1488" data-name="Path 1488" d="M1819.391,840.184c-52.186-12.739-78.836-71.944-54.768-119.853,23.543-48.383,88.325-62.942,130.058-28.894a84.28,84.28,0,0,1,30.829,53.254,82.742,82.742,0,0,1-2.751,36.947,84.724,84.724,0,0,0,2.292-24.462c-2.214-51.458-50.838-89.085-101.134-77.6a82.58,82.58,0,0,0-55.08,42.877c-23.69,46.093,1.224,102.53,50.554,117.727" fill="#fff"/>
        <path id="Path_1489" data-name="Path 1489" d="M1969.936,950.847c-12.477-17.836-9.971-44.343,8.582-57.076,23.127-16.041,51.687-8.6,63.722,16.963,3.181,6.454,5.154,13.853,4.431,21.152-.277,3.568-1.567,6.953-1.959,10.413a39.288,39.288,0,0,0,.2,10.115c1.568,9.931,5.986,19.889,13.88,26.325,10.384,8.641,25.621,10.245,37.966,5.125a40.073,40.073,0,0,0,21.354-20.2c4.169-9.361,5.034-19.928,5.56-30.112a136.14,136.14,0,0,0-.847-20.681c-2.84-20.579-10.181-40.582-22.647-57.249-34.9-46.217-99.935-62-151.226-34.076a122.611,122.611,0,0,0-40.647,33.966,126.575,126.575,0,0,0-23.135,47.753c-.567,2.909-1.172,5.821-1.631,8.749-.23,2.033-.633,5.742-.855,7.744-2.576,37.055,14.762,71.515,41.825,96.094,26.327,23.916,62.79,40.485,98.842,34.326-48.184,9.528-100.12-22.149-125.7-61.94-16.56-25.964-22.743-55.579-16.3-85.832.7-2.637,1.507-6.362,2.356-8.912,1.238-4.27,3.063-8.843,4.742-12.982a138.82,138.82,0,0,1,16.37-27.679c14.817-19.667,35.686-34.562,58.767-42.992,53.3-19.563,115.614,2.651,145.722,50.5,9.959,15.783,15.953,34.348,18.246,52.573a139.441,139.441,0,0,1,.673,20.806c-.779,14.3-2.45,29.818-12.146,41.127-14,17.553-42.246,21.516-59.592,6.663-11.087-9.464-16.433-25.259-14.86-39.615.435-3.545,1.744-6.84,2.074-10.311.73-6.814-1-13.531-3.946-19.721-11.25-24.465-38.079-31.774-60.419-16.92-18.353,12.047-21.14,38.2-9.4,55.9" fill="#fff"/>
        <path id="Path_1490" data-name="Path 1490" d="M2113.181,721.567a82.58,82.58,0,0,1-44.575,39.788c-30.955,11.731-67.479,3.439-90.3-20.558-22.415-22.617-29.888-59.015-17.686-88.181-19.161,64.8,39.894,125.382,104.9,105.681,19.664-5.922,36.7-19.461,47.67-36.73" fill="#fff"/>
        <path id="Path_1491" data-name="Path 1491" d="M1788.876,604.026a82.584,82.584,0,0,1-44.575,39.788c-30.955,11.731-67.479,3.439-90.305-20.558-22.414-22.617-29.886-59.015-17.685-88.181-19.161,64.8,39.894,125.382,104.9,105.681,19.664-5.922,36.7-19.461,47.67-36.73" fill="#fff"/>
        <path id="Path_1492" data-name="Path 1492" d="M2126.156,542.3a9.915,9.915,0,1,1-9.915-9.915,9.915,9.915,0,0,1,9.915,9.915" fill="#fff"/>
        <path id="Path_1493" data-name="Path 1493" d="M2126.156,590.936a9.915,9.915,0,1,1-9.915-9.915,9.915,9.915,0,0,1,9.915,9.915" fill="#fff"/>
        <path id="Path_1494" data-name="Path 1494" d="M2126.156,639.576a9.915,9.915,0,1,1-9.915-9.916,9.915,9.915,0,0,1,9.915,9.916" fill="#fff"/>
        <path id="Path_1495" data-name="Path 1495" d="M1724.12,847.432a9.915,9.915,0,1,1-9.915-9.915,9.915,9.915,0,0,1,9.915,9.915" fill="#fff"/>
        <path id="Path_1496" data-name="Path 1496" d="M1724.12,896.072a9.915,9.915,0,1,1-9.915-9.915,9.915,9.915,0,0,1,9.915,9.915" fill="#fff"/>
        <path id="Path_1497" data-name="Path 1497" d="M1724.12,944.711a9.915,9.915,0,1,1-9.915-9.915,9.915,9.915,0,0,1,9.915,9.915" fill="#fff"/>
        <path id="Path_1498" data-name="Path 1498" d="M1118.549,943.908c-22.983-48.086-17.655-108.027,11.962-152.159a152.4,152.4,0,0,1,36.25-38.189,221.147,221.147,0,0,0-17.93,19.065c-16.382,20.027-28.713,43.661-34.906,68.827-8.642,33.7-6.626,69.487,4.624,102.456" fill="#fff"/>
        <path id="Path_1499" data-name="Path 1499" d="M1340.874,1025.752c-45.6,22.106-101.9,18.763-145.487-6.722a154.375,154.375,0,0,1-46.95-42.423c24.359,26.872,56.47,46.682,91.84,54.942a180.835,180.835,0,0,0,100.6-5.8" fill="#fff"/>
        <path id="Path_1500" data-name="Path 1500" d="M1344.059,549.644c43.991-21.743,98.669-19.813,141.687,3.56a152.381,152.381,0,0,1,50.214,43.019,193.023,193.023,0,0,0-40.75-32.918c-45.453-27.187-101.432-31.682-151.151-13.661" fill="#fff"/>
        <path id="Path_1501" data-name="Path 1501" d="M1275.9,840.184c-52.185-12.739-78.836-71.944-54.768-119.853,23.543-48.383,88.325-62.942,130.058-28.894a84.28,84.28,0,0,1,30.829,53.254,82.726,82.726,0,0,1-2.751,36.947,84.719,84.719,0,0,0,2.292-24.462c-2.214-51.458-50.838-89.085-101.134-77.6a82.581,82.581,0,0,0-55.08,42.877c-23.69,46.093,1.224,102.53,50.554,117.727" fill="#fff"/>
        <path id="Path_1502" data-name="Path 1502" d="M1426.441,950.847c-12.476-17.836-9.971-44.343,8.582-57.076,23.127-16.041,51.687-8.6,63.722,16.963,3.181,6.454,5.154,13.853,4.431,21.152-.277,3.568-1.567,6.953-1.959,10.413a39.288,39.288,0,0,0,.2,10.115c1.568,9.931,5.986,19.889,13.88,26.325,10.384,8.641,25.621,10.245,37.966,5.125a40.073,40.073,0,0,0,21.354-20.2c4.169-9.361,5.034-19.928,5.56-30.112a136.155,136.155,0,0,0-.847-20.681c-2.84-20.579-10.181-40.582-22.647-57.249-34.9-46.217-99.934-62-151.226-34.076a122.613,122.613,0,0,0-40.647,33.966,126.575,126.575,0,0,0-23.135,47.753c-.567,2.909-1.172,5.821-1.631,8.749-.23,2.033-.633,5.742-.855,7.744-2.576,37.055,14.762,71.515,41.825,96.094,26.327,23.916,62.79,40.485,98.842,34.326-48.184,9.528-100.12-22.149-125.7-61.94-16.56-25.964-22.743-55.579-16.3-85.832.7-2.637,1.507-6.362,2.356-8.912,1.238-4.27,3.063-8.843,4.742-12.982a138.82,138.82,0,0,1,16.37-27.679c14.817-19.667,35.686-34.562,58.767-42.992,53.305-19.563,115.614,2.651,145.722,50.5,9.958,15.783,15.953,34.348,18.246,52.573a139.424,139.424,0,0,1,.673,20.806c-.779,14.3-2.451,29.818-12.146,41.127-14,17.553-42.246,21.516-59.592,6.663-11.088-9.464-16.433-25.259-14.86-39.615.435-3.545,1.744-6.84,2.074-10.311.73-6.814-1-13.531-3.946-19.721-11.25-24.465-38.08-31.774-60.419-16.92-18.353,12.047-21.14,38.2-9.4,55.9" fill="#fff"/>
        <path id="Path_1503" data-name="Path 1503" d="M1569.686,721.567a82.58,82.58,0,0,1-44.575,39.788c-30.955,11.731-67.479,3.439-90.3-20.558-22.414-22.617-29.887-59.015-17.685-88.181-19.161,64.8,39.894,125.382,104.9,105.681,19.664-5.922,36.7-19.461,47.67-36.73" fill="#fff"/>
        <path id="Path_1504" data-name="Path 1504" d="M1245.381,604.026a82.584,82.584,0,0,1-44.575,39.788c-30.955,11.731-67.479,3.439-90.305-20.558-22.414-22.617-29.886-59.015-17.685-88.181-19.161,64.8,39.894,125.382,104.9,105.681,19.664-5.922,36.7-19.461,47.67-36.73" fill="#fff"/>
        <path id="Path_1505" data-name="Path 1505" d="M1582.66,542.3a9.915,9.915,0,1,1-9.915-9.915,9.915,9.915,0,0,1,9.915,9.915" fill="#fff"/>
        <path id="Path_1506" data-name="Path 1506" d="M1582.66,590.936a9.915,9.915,0,1,1-9.915-9.915,9.915,9.915,0,0,1,9.915,9.915" fill="#fff"/>
        <path id="Path_1507" data-name="Path 1507" d="M1582.66,639.576a9.915,9.915,0,1,1-9.915-9.916,9.915,9.915,0,0,1,9.915,9.916" fill="#fff"/>
        <path id="Path_1508" data-name="Path 1508" d="M1180.625,847.432a9.915,9.915,0,1,1-9.915-9.915,9.915,9.915,0,0,1,9.915,9.915" fill="#fff"/>
        <path id="Path_1509" data-name="Path 1509" d="M1180.625,896.072a9.915,9.915,0,1,1-9.915-9.915,9.915,9.915,0,0,1,9.915,9.915" fill="#fff"/>
        <path id="Path_1510" data-name="Path 1510" d="M1180.625,944.711a9.915,9.915,0,1,1-9.915-9.915,9.915,9.915,0,0,1,9.915,9.915" fill="#fff"/>
        <path id="Path_1511" data-name="Path 1511" d="M575.054,943.908c-22.983-48.086-17.655-108.027,11.962-152.159a152.4,152.4,0,0,1,36.25-38.189,221.158,221.158,0,0,0-17.93,19.065c-16.382,20.027-28.713,43.661-34.906,68.827-8.642,33.7-6.626,69.487,4.624,102.456" fill="#fff"/>
        <path id="Path_1512" data-name="Path 1512" d="M797.378,1025.752c-45.6,22.106-101.9,18.763-145.487-6.722a154.386,154.386,0,0,1-46.95-42.423c24.359,26.872,56.47,46.682,91.84,54.942a180.835,180.835,0,0,0,100.6-5.8" fill="#fff"/>
        <path id="Path_1513" data-name="Path 1513" d="M800.563,549.644c43.991-21.743,98.669-19.813,141.687,3.56a152.381,152.381,0,0,1,50.214,43.019,193.025,193.025,0,0,0-40.75-32.918c-45.453-27.187-101.432-31.682-151.151-13.661" fill="#fff"/>
        <path id="Path_1514" data-name="Path 1514" d="M732.4,840.184c-52.185-12.739-78.836-71.944-54.768-119.853,23.543-48.383,88.325-62.942,130.058-28.894a84.28,84.28,0,0,1,30.829,53.254,82.726,82.726,0,0,1-2.751,36.947,84.721,84.721,0,0,0,2.292-24.462c-2.214-51.458-50.838-89.085-101.134-77.6a82.58,82.58,0,0,0-55.08,42.877c-23.69,46.093,1.224,102.53,50.554,117.727" fill="#fff"/>
        <path id="Path_1515" data-name="Path 1515" d="M882.945,950.847c-12.477-17.836-9.971-44.343,8.582-57.076,23.127-16.041,51.687-8.6,63.722,16.963,3.181,6.454,5.154,13.853,4.431,21.152-.277,3.568-1.567,6.953-1.959,10.413a39.288,39.288,0,0,0,.205,10.115c1.568,9.931,5.986,19.889,13.88,26.325,10.384,8.641,25.621,10.245,37.966,5.125a40.073,40.073,0,0,0,21.354-20.2c4.169-9.361,5.034-19.928,5.56-30.112a136.155,136.155,0,0,0-.847-20.681c-2.84-20.579-10.181-40.582-22.647-57.249-34.9-46.217-99.934-62-151.226-34.076a122.613,122.613,0,0,0-40.647,33.966,126.576,126.576,0,0,0-23.135,47.753c-.567,2.909-1.172,5.821-1.631,8.749-.23,2.033-.633,5.742-.855,7.744-2.576,37.055,14.762,71.515,41.825,96.094,26.327,23.916,62.79,40.485,98.842,34.326-48.184,9.528-100.12-22.149-125.7-61.94-16.56-25.964-22.743-55.579-16.3-85.832.7-2.637,1.507-6.362,2.356-8.912,1.238-4.27,3.063-8.843,4.742-12.982a138.814,138.814,0,0,1,16.37-27.679c14.817-19.667,35.686-34.562,58.767-42.992,53.305-19.563,115.614,2.651,145.722,50.5,9.959,15.783,15.953,34.348,18.246,52.573a139.408,139.408,0,0,1,.673,20.806c-.779,14.3-2.45,29.818-12.146,41.127-14,17.553-42.246,21.516-59.592,6.663-11.087-9.464-16.433-25.259-14.86-39.615.435-3.545,1.744-6.84,2.074-10.311.73-6.814-1-13.531-3.946-19.721-11.25-24.465-38.079-31.774-60.419-16.92-18.353,12.047-21.14,38.2-9.4,55.9" fill="#fff"/>
        <path id="Path_1516" data-name="Path 1516" d="M1026.191,721.567a82.58,82.58,0,0,1-44.575,39.788c-30.955,11.731-67.479,3.439-90.305-20.558-22.414-22.617-29.887-59.015-17.685-88.181C854.465,717.421,913.52,778,978.521,758.3c19.664-5.922,36.7-19.461,47.67-36.73" fill="#fff"/>
        <path id="Path_1517" data-name="Path 1517" d="M701.885,604.026a82.584,82.584,0,0,1-44.575,39.788c-30.955,11.731-67.479,3.439-90.3-20.558-22.414-22.617-29.886-59.015-17.685-88.181-19.161,64.8,39.894,125.382,104.9,105.681,19.664-5.922,36.7-19.461,47.67-36.73" fill="#fff"/>
        <path id="Path_1518" data-name="Path 1518" d="M1039.165,542.3a9.915,9.915,0,1,1-9.915-9.915,9.915,9.915,0,0,1,9.915,9.915" fill="#fff"/>
        <path id="Path_1519" data-name="Path 1519" d="M1039.165,590.936a9.915,9.915,0,1,1-9.915-9.915,9.915,9.915,0,0,1,9.915,9.915" fill="#fff"/>
        <path id="Path_1520" data-name="Path 1520" d="M1039.165,639.576a9.915,9.915,0,1,1-9.915-9.916,9.915,9.915,0,0,1,9.915,9.916" fill="#fff"/>
        <path id="Path_1521" data-name="Path 1521" d="M637.129,847.432a9.915,9.915,0,1,1-9.915-9.915,9.915,9.915,0,0,1,9.915,9.915" fill="#fff"/>
        <path id="Path_1522" data-name="Path 1522" d="M637.129,896.072a9.915,9.915,0,1,1-9.915-9.915,9.915,9.915,0,0,1,9.915,9.915" fill="#fff"/>
        <path id="Path_1523" data-name="Path 1523" d="M637.129,944.711a9.915,9.915,0,1,1-9.915-9.915,9.915,9.915,0,0,1,9.915,9.915" fill="#fff"/>
        <path id="Path_1524" data-name="Path 1524" d="M31.559,943.908C8.576,895.822,13.9,835.881,43.521,791.749a152.4,152.4,0,0,1,36.25-38.189,221.161,221.161,0,0,0-17.93,19.065c-16.382,20.027-28.713,43.661-34.906,68.827-8.642,33.7-6.626,69.487,4.624,102.456" fill="#fff"/>
        <path id="Path_1525" data-name="Path 1525" d="M253.883,1025.752c-45.6,22.106-101.9,18.763-145.487-6.722a154.374,154.374,0,0,1-46.95-42.423c24.359,26.872,56.47,46.682,91.84,54.942a180.835,180.835,0,0,0,100.6-5.8" fill="#fff"/>
        <path id="Path_1526" data-name="Path 1526" d="M257.068,549.644c43.991-21.743,98.669-19.813,141.687,3.56a152.381,152.381,0,0,1,50.214,43.019,193.025,193.025,0,0,0-40.75-32.918c-45.453-27.187-101.432-31.682-151.151-13.661" fill="#fff"/>
        <path id="Path_1527" data-name="Path 1527" d="M188.9,840.184c-52.185-12.739-78.836-71.944-54.768-119.853,23.543-48.383,88.325-62.942,130.058-28.894a84.28,84.28,0,0,1,30.829,53.254,82.726,82.726,0,0,1-2.751,36.947,84.72,84.72,0,0,0,2.292-24.462c-2.214-51.458-50.838-89.085-101.134-77.6a82.58,82.58,0,0,0-55.08,42.877c-23.69,46.093,1.224,102.53,50.554,117.727" fill="#fff"/>
        <path id="Path_1528" data-name="Path 1528" d="M339.45,950.847c-12.477-17.836-9.971-44.343,8.582-57.076,23.127-16.041,51.687-8.6,63.722,16.963,3.181,6.454,5.154,13.853,4.431,21.152-.277,3.568-1.567,6.953-1.959,10.413a39.289,39.289,0,0,0,.2,10.115c1.568,9.931,5.986,19.889,13.88,26.325,10.384,8.641,25.621,10.245,37.966,5.125a40.073,40.073,0,0,0,21.354-20.2c4.169-9.361,5.034-19.928,5.56-30.112a136.151,136.151,0,0,0-.847-20.681c-2.84-20.579-10.181-40.582-22.647-57.249-34.9-46.217-99.934-62-151.226-34.076a122.612,122.612,0,0,0-40.647,33.966,126.576,126.576,0,0,0-23.135,47.753c-.567,2.909-1.172,5.821-1.631,8.749-.23,2.033-.633,5.742-.855,7.744-2.576,37.055,14.762,71.515,41.825,96.094,26.327,23.916,62.79,40.485,98.842,34.326-48.184,9.528-100.12-22.149-125.7-61.94-16.56-25.964-22.743-55.579-16.3-85.832.7-2.637,1.507-6.362,2.356-8.912,1.238-4.27,3.063-8.843,4.742-12.982a138.813,138.813,0,0,1,16.37-27.679c14.817-19.667,35.686-34.562,58.767-42.992,53.3-19.563,115.614,2.651,145.722,50.5,9.959,15.783,15.953,34.348,18.246,52.573a139.424,139.424,0,0,1,.673,20.806c-.779,14.3-2.45,29.818-12.146,41.127-14,17.553-42.246,21.516-59.592,6.663-11.087-9.464-16.433-25.259-14.86-39.615.435-3.545,1.744-6.84,2.074-10.311.73-6.814-1-13.531-3.946-19.721-11.25-24.465-38.079-31.774-60.419-16.92-18.353,12.047-21.14,38.2-9.4,55.9" fill="#fff"/>
        <path id="Path_1529" data-name="Path 1529" d="M482.7,721.567a82.58,82.58,0,0,1-44.575,39.788c-30.955,11.731-67.479,3.439-90.3-20.558-22.414-22.617-29.887-59.015-17.685-88.181C310.969,717.421,370.024,778,435.025,758.3c19.664-5.922,36.7-19.461,47.67-36.73" fill="#fff"/>
        <path id="Path_1530" data-name="Path 1530" d="M158.39,604.026a82.584,82.584,0,0,1-44.575,39.788c-30.955,11.731-67.479,3.439-90.305-20.558C1.1,600.639-6.376,564.241,5.825,535.075c-19.161,64.8,39.894,125.382,104.9,105.681,19.664-5.922,36.7-19.461,47.67-36.73" fill="#fff"/>
        <path id="Path_1531" data-name="Path 1531" d="M495.67,542.3a9.915,9.915,0,1,1-9.915-9.915,9.915,9.915,0,0,1,9.915,9.915" fill="#fff"/>
        <path id="Path_1532" data-name="Path 1532" d="M495.67,590.936a9.915,9.915,0,1,1-9.915-9.915,9.915,9.915,0,0,1,9.915,9.915" fill="#fff"/>
        <path id="Path_1533" data-name="Path 1533" d="M495.67,639.576a9.915,9.915,0,1,1-9.915-9.916,9.915,9.915,0,0,1,9.915,9.916" fill="#fff"/>
        <path id="Path_1534" data-name="Path 1534" d="M93.634,847.432a9.915,9.915,0,1,1-9.915-9.915,9.915,9.915,0,0,1,9.915,9.915" fill="#fff"/>
        <path id="Path_1535" data-name="Path 1535" d="M93.634,896.072a9.915,9.915,0,1,1-9.915-9.915,9.915,9.915,0,0,1,9.915,9.915" fill="#fff"/>
        <path id="Path_1536" data-name="Path 1536" d="M93.634,944.711a9.915,9.915,0,1,1-9.915-9.915,9.915,9.915,0,0,1,9.915,9.915" fill="#fff"/>
        <path id="Path_1537" data-name="Path 1537" d="M1662.045,411.528c-22.984-48.086-17.655-108.027,11.962-152.159a152.4,152.4,0,0,1,36.25-38.189,221.309,221.309,0,0,0-17.931,19.065c-16.381,20.027-28.712,43.661-34.905,68.827-8.642,33.7-6.626,69.487,4.624,102.456" fill="#fff"/>
        <path id="Path_1538" data-name="Path 1538" d="M1884.369,493.372c-45.595,22.106-101.9,18.763-145.486-6.722a154.366,154.366,0,0,1-46.951-42.423c24.358,26.872,56.47,46.682,91.84,54.942a180.838,180.838,0,0,0,100.6-5.8" fill="#fff"/>
        <path id="Path_1539" data-name="Path 1539" d="M1887.554,17.265c43.991-21.744,98.669-19.813,141.687,3.56a152.382,152.382,0,0,1,50.214,43.019,193.032,193.032,0,0,0-40.75-32.918C1993.252,3.739,1937.273-.756,1887.554,17.265" fill="#fff"/>
        <path id="Path_1540" data-name="Path 1540" d="M1819.391,307.8c-52.185-12.739-78.836-71.944-54.768-119.853,23.543-48.382,88.325-62.943,130.058-28.894a84.28,84.28,0,0,1,30.829,53.254,82.741,82.741,0,0,1-2.751,36.947,84.724,84.724,0,0,0,2.293-24.462c-2.215-51.458-50.839-89.085-101.135-77.6a82.572,82.572,0,0,0-55.079,42.876c-23.691,46.093,1.223,102.53,50.553,117.727" fill="#fff"/>
        <path id="Path_1541" data-name="Path 1541" d="M1969.936,418.467c-12.477-17.836-9.972-44.342,8.582-57.076,23.127-16.041,51.687-8.6,63.722,16.963,3.181,6.455,5.153,13.853,4.43,21.152-.276,3.568-1.566,6.953-1.958,10.413a39.244,39.244,0,0,0,.2,10.115c1.568,9.931,5.986,19.889,13.88,26.325,10.383,8.641,25.621,10.245,37.965,5.125a40.066,40.066,0,0,0,21.354-20.2c4.17-9.361,5.035-19.928,5.561-30.112a136.145,136.145,0,0,0-.847-20.681c-2.84-20.579-10.181-40.582-22.647-57.249-34.9-46.217-99.935-62-151.226-34.076a122.639,122.639,0,0,0-40.648,33.966,126.573,126.573,0,0,0-23.134,47.753c-.567,2.909-1.172,5.822-1.631,8.749-.23,2.033-.634,5.742-.855,7.744-2.577,37.054,14.762,71.516,41.825,96.094,26.327,23.916,62.79,40.485,98.842,34.326-48.184,9.528-100.121-22.149-125.7-61.94-16.56-25.963-22.743-55.58-16.3-85.832.7-2.637,1.507-6.362,2.355-8.912,1.239-4.27,3.064-8.843,4.743-12.982a138.822,138.822,0,0,1,16.37-27.679c14.817-19.668,35.686-34.562,58.767-42.992,53.3-19.564,115.614,2.651,145.722,50.5,9.959,15.783,15.953,34.348,18.246,52.573a139.44,139.44,0,0,1,.673,20.806c-.78,14.3-2.45,29.818-12.147,41.127-14,17.553-42.245,21.516-59.591,6.663-11.087-9.464-16.434-25.259-14.86-39.615.435-3.545,1.744-6.84,2.074-10.311.73-6.814-1-13.531-3.946-19.721-11.25-24.465-38.08-31.774-60.419-16.92-18.353,12.047-21.14,38.2-9.4,55.9" fill="#fff"/>
        <path id="Path_1542" data-name="Path 1542" d="M2113.181,189.188a82.584,82.584,0,0,1-44.575,39.788c-30.955,11.731-67.479,3.439-90.3-20.558-22.414-22.617-29.886-59.015-17.685-88.181-19.161,64.805,39.894,125.382,104.9,105.681,19.664-5.922,36.7-19.461,47.67-36.73" fill="#fff"/>
        <path id="Path_1543" data-name="Path 1543" d="M1788.876,71.646a82.58,82.58,0,0,1-44.575,39.788c-30.954,11.73-67.479,3.439-90.3-20.558-22.415-22.617-29.888-59.015-17.686-88.181-19.161,64.805,39.894,125.382,104.9,105.681,19.664-5.922,36.7-19.461,47.67-36.73" fill="#fff"/>
        <path id="Path_1544" data-name="Path 1544" d="M2126.156,9.917A9.915,9.915,0,1,1,2116.241,0a9.916,9.916,0,0,1,9.915,9.916" fill="#fff"/>
        <path id="Path_1545" data-name="Path 1545" d="M2126.156,58.556a9.915,9.915,0,1,1-9.915-9.915,9.915,9.915,0,0,1,9.915,9.915" fill="#fff"/>
        <path id="Path_1546" data-name="Path 1546" d="M2126.156,107.2a9.915,9.915,0,1,1-9.915-9.915,9.915,9.915,0,0,1,9.915,9.915" fill="#fff"/>
        <path id="Path_1547" data-name="Path 1547" d="M1724.12,315.052a9.915,9.915,0,1,1-9.915-9.915,9.915,9.915,0,0,1,9.915,9.915" fill="#fff"/>
        <path id="Path_1548" data-name="Path 1548" d="M1724.12,363.692a9.915,9.915,0,1,1-9.915-9.915,9.915,9.915,0,0,1,9.915,9.915" fill="#fff"/>
        <path id="Path_1549" data-name="Path 1549" d="M1724.12,412.332a9.915,9.915,0,1,1-9.915-9.915,9.915,9.915,0,0,1,9.915,9.915" fill="#fff"/>
        <path id="Path_1550" data-name="Path 1550" d="M1118.55,411.528c-22.984-48.087-17.655-108.027,11.962-152.159a152.4,152.4,0,0,1,36.25-38.189,221.309,221.309,0,0,0-17.931,19.065c-16.381,20.027-28.712,43.661-34.905,68.827-8.642,33.7-6.626,69.487,4.624,102.456" fill="#fff"/>
        <path id="Path_1551" data-name="Path 1551" d="M1340.874,493.372c-45.595,22.106-101.9,18.763-145.486-6.722a154.367,154.367,0,0,1-46.951-42.423c24.359,26.872,56.47,46.682,91.84,54.942a180.837,180.837,0,0,0,100.6-5.8" fill="#fff"/>
        <path id="Path_1552" data-name="Path 1552" d="M1344.059,17.265c43.991-21.744,98.669-19.813,141.687,3.56a152.38,152.38,0,0,1,50.214,43.019,192.994,192.994,0,0,0-40.75-32.918C1449.757,3.739,1393.778-.755,1344.059,17.265" fill="#fff"/>
        <path id="Path_1553" data-name="Path 1553" d="M1275.9,307.8c-52.185-12.739-78.836-71.944-54.768-119.853,23.542-48.383,88.325-62.942,130.058-28.894a84.28,84.28,0,0,1,30.829,53.254,82.74,82.74,0,0,1-2.751,36.947,84.754,84.754,0,0,0,2.293-24.462c-2.216-51.458-50.839-89.085-101.135-77.6a82.579,82.579,0,0,0-55.08,42.876c-23.69,46.093,1.224,102.53,50.554,117.727" fill="#fff"/>
        <path id="Path_1554" data-name="Path 1554" d="M1426.441,418.467c-12.477-17.836-9.972-44.343,8.582-57.076,23.127-16.041,51.687-8.6,63.722,16.963,3.181,6.455,5.154,13.853,4.43,21.152-.276,3.568-1.566,6.953-1.958,10.413a39.244,39.244,0,0,0,.2,10.115c1.569,9.931,5.986,19.889,13.88,26.325,10.383,8.641,25.621,10.245,37.966,5.125a40.064,40.064,0,0,0,21.353-20.2c4.17-9.361,5.035-19.928,5.561-30.112a136.16,136.16,0,0,0-.847-20.681c-2.84-20.579-10.181-40.582-22.647-57.249-34.9-46.217-99.934-62-151.226-34.076a122.627,122.627,0,0,0-40.648,33.966,126.573,126.573,0,0,0-23.134,47.753c-.567,2.909-1.172,5.822-1.631,8.749-.23,2.033-.633,5.742-.855,7.744-2.577,37.055,14.762,71.516,41.825,96.094,26.327,23.916,62.79,40.485,98.842,34.326-48.184,9.528-100.121-22.149-125.7-61.94-16.56-25.963-22.743-55.58-16.3-85.832.7-2.637,1.507-6.362,2.355-8.912,1.239-4.27,3.064-8.843,4.743-12.982a138.822,138.822,0,0,1,16.37-27.679c14.817-19.668,35.686-34.562,58.767-42.992,53.305-19.564,115.614,2.651,145.722,50.5,9.959,15.783,15.953,34.348,18.246,52.573a139.424,139.424,0,0,1,.673,20.806c-.779,14.3-2.45,29.818-12.147,41.127-14,17.553-42.245,21.516-59.591,6.663-11.087-9.464-16.433-25.259-14.86-39.615.435-3.545,1.744-6.84,2.074-10.311.73-6.814-1-13.531-3.946-19.721-11.25-24.465-38.08-31.774-60.419-16.92-18.353,12.047-21.14,38.2-9.4,55.9" fill="#fff"/>
        <path id="Path_1555" data-name="Path 1555" d="M1569.686,189.188a82.583,82.583,0,0,1-44.575,39.788c-30.955,11.731-67.479,3.439-90.3-20.558-22.414-22.617-29.886-59.015-17.685-88.181-19.161,64.805,39.894,125.382,104.9,105.681,19.664-5.922,36.7-19.46,47.67-36.73" fill="#fff"/>
        <path id="Path_1556" data-name="Path 1556" d="M1245.381,71.646a82.58,82.58,0,0,1-44.575,39.788c-30.955,11.73-67.479,3.439-90.305-20.558-22.414-22.617-29.887-59.015-17.685-88.181-19.161,64.805,39.894,125.382,104.9,105.681,19.664-5.922,36.7-19.461,47.67-36.73" fill="#fff"/>
        <path id="Path_1557" data-name="Path 1557" d="M1582.66,9.917A9.915,9.915,0,1,1,1572.745,0a9.916,9.916,0,0,1,9.915,9.916" fill="#fff"/>
        <path id="Path_1558" data-name="Path 1558" d="M1582.66,58.556a9.915,9.915,0,1,1-9.915-9.915,9.915,9.915,0,0,1,9.915,9.915" fill="#fff"/>
        <path id="Path_1559" data-name="Path 1559" d="M1582.66,107.2a9.915,9.915,0,1,1-9.915-9.915,9.915,9.915,0,0,1,9.915,9.915" fill="#fff"/>
        <path id="Path_1560" data-name="Path 1560" d="M1180.625,315.052a9.915,9.915,0,1,1-9.915-9.915,9.915,9.915,0,0,1,9.915,9.915" fill="#fff"/>
        <path id="Path_1561" data-name="Path 1561" d="M1180.625,363.692a9.915,9.915,0,1,1-9.915-9.915,9.915,9.915,0,0,1,9.915,9.915" fill="#fff"/>
        <path id="Path_1562" data-name="Path 1562" d="M1180.625,412.332a9.915,9.915,0,1,1-9.915-9.915,9.915,9.915,0,0,1,9.915,9.915" fill="#fff"/>
        <path id="Path_1563" data-name="Path 1563" d="M575.054,411.528C552.07,363.441,557.4,303.5,587.016,259.369a152.4,152.4,0,0,1,36.25-38.189,221.155,221.155,0,0,0-17.93,19.065c-16.382,20.027-28.713,43.661-34.906,68.827-8.642,33.7-6.626,69.487,4.624,102.456" fill="#fff"/>
        <path id="Path_1564" data-name="Path 1564" d="M797.378,493.372c-45.6,22.106-101.9,18.763-145.487-6.722a154.375,154.375,0,0,1-46.95-42.423c24.358,26.872,56.47,46.682,91.84,54.942a180.838,180.838,0,0,0,100.6-5.8" fill="#fff"/>
        <path id="Path_1565" data-name="Path 1565" d="M800.563,17.265c43.991-21.744,98.669-19.813,141.687,3.56a152.381,152.381,0,0,1,50.214,43.019,193,193,0,0,0-40.75-32.918C906.261,3.739,850.282-.756,800.563,17.265" fill="#fff"/>
        <path id="Path_1566" data-name="Path 1566" d="M732.4,307.8c-52.185-12.739-78.836-71.944-54.768-119.853,23.543-48.383,88.325-62.942,130.058-28.894a84.28,84.28,0,0,1,30.829,53.254,82.741,82.741,0,0,1-2.751,36.947A84.685,84.685,0,0,0,838.06,224.8c-2.214-51.458-50.838-89.085-101.134-77.6a82.577,82.577,0,0,0-55.08,42.876C658.156,236.17,683.07,292.607,732.4,307.8" fill="#fff"/>
        <path id="Path_1567" data-name="Path 1567" d="M882.945,418.467c-12.477-17.836-9.972-44.342,8.582-57.076,23.127-16.041,51.687-8.6,63.722,16.963,3.181,6.455,5.154,13.853,4.431,21.152-.277,3.568-1.567,6.953-1.959,10.413a39.288,39.288,0,0,0,.205,10.115c1.568,9.931,5.986,19.889,13.88,26.325,10.383,8.641,25.621,10.245,37.966,5.125a40.064,40.064,0,0,0,21.353-20.2c4.17-9.361,5.035-19.928,5.561-30.112a136.16,136.16,0,0,0-.847-20.681c-2.84-20.579-10.181-40.582-22.647-57.249-34.9-46.217-99.935-62-151.226-34.076a122.627,122.627,0,0,0-40.648,33.966,126.589,126.589,0,0,0-23.134,47.753c-.567,2.909-1.172,5.822-1.631,8.749-.23,2.033-.633,5.742-.855,7.744-2.577,37.054,14.762,71.516,41.825,96.094,26.327,23.916,62.79,40.485,98.842,34.326-48.184,9.528-100.121-22.149-125.7-61.94-16.56-25.964-22.743-55.579-16.3-85.832.7-2.637,1.507-6.362,2.356-8.912,1.238-4.27,3.063-8.843,4.742-12.982a138.816,138.816,0,0,1,16.37-27.679c14.817-19.668,35.686-34.562,58.767-42.992,53.306-19.564,115.614,2.651,145.722,50.5,9.959,15.783,15.953,34.348,18.246,52.573a139.407,139.407,0,0,1,.673,20.806c-.779,14.3-2.45,29.818-12.147,41.127-14,17.553-42.245,21.516-59.591,6.663-11.087-9.464-16.433-25.259-14.86-39.615.435-3.545,1.744-6.84,2.074-10.311.73-6.814-1-13.531-3.946-19.721-11.25-24.465-38.08-31.775-60.419-16.92-18.353,12.047-21.14,38.2-9.4,55.9" fill="#fff"/>
        <path id="Path_1568" data-name="Path 1568" d="M1026.19,189.188a82.58,82.58,0,0,1-44.575,39.788c-30.955,11.731-67.479,3.439-90.3-20.558C868.9,185.8,861.423,149.4,873.625,120.237c-19.161,64.805,39.894,125.382,104.9,105.681,19.664-5.922,36.7-19.46,47.67-36.73" fill="#fff"/>
        <path id="Path_1569" data-name="Path 1569" d="M701.885,71.646a82.58,82.58,0,0,1-44.575,39.788c-30.955,11.73-67.479,3.439-90.3-20.558C544.591,68.259,537.118,31.861,549.32,2.695c-19.161,64.805,39.894,125.382,104.9,105.681,19.664-5.922,36.7-19.461,47.67-36.73" fill="#fff"/>
        <path id="Path_1570" data-name="Path 1570" d="M1039.165,9.917A9.915,9.915,0,1,1,1029.25,0a9.916,9.916,0,0,1,9.915,9.916" fill="#fff"/>
        <path id="Path_1571" data-name="Path 1571" d="M1039.165,58.556a9.915,9.915,0,1,1-9.915-9.915,9.915,9.915,0,0,1,9.915,9.915" fill="#fff"/>
        <path id="Path_1572" data-name="Path 1572" d="M1039.165,107.2a9.915,9.915,0,1,1-9.915-9.915,9.915,9.915,0,0,1,9.915,9.915" fill="#fff"/>
        <path id="Path_1573" data-name="Path 1573" d="M637.129,315.052a9.915,9.915,0,1,1-9.915-9.915,9.915,9.915,0,0,1,9.915,9.915" fill="#fff"/>
        <path id="Path_1574" data-name="Path 1574" d="M637.129,363.692a9.915,9.915,0,1,1-9.915-9.915,9.915,9.915,0,0,1,9.915,9.915" fill="#fff"/>
        <path id="Path_1575" data-name="Path 1575" d="M637.129,412.332a9.915,9.915,0,1,1-9.915-9.915,9.915,9.915,0,0,1,9.915,9.915" fill="#fff"/>
        <path id="Path_1576" data-name="Path 1576" d="M31.559,411.528C8.575,363.441,13.9,303.5,43.521,259.369a152.4,152.4,0,0,1,36.25-38.189,221.155,221.155,0,0,0-17.93,19.065c-16.382,20.027-28.713,43.661-34.906,68.827-8.642,33.7-6.626,69.487,4.624,102.456" fill="#fff"/>
        <path id="Path_1577" data-name="Path 1577" d="M253.883,493.372c-45.6,22.106-101.9,18.763-145.487-6.722a154.374,154.374,0,0,1-46.95-42.423c24.358,26.872,56.47,46.682,91.84,54.942a180.837,180.837,0,0,0,100.6-5.8" fill="#fff"/>
        <path id="Path_1578" data-name="Path 1578" d="M257.068,17.265c43.991-21.744,98.669-19.813,141.687,3.56a152.381,152.381,0,0,1,50.214,43.019,193,193,0,0,0-40.75-32.918C362.766,3.739,306.787-.756,257.068,17.265" fill="#fff"/>
        <path id="Path_1579" data-name="Path 1579" d="M188.9,307.8c-52.186-12.739-78.836-71.944-54.768-119.853,23.542-48.383,88.325-62.942,130.058-28.894a84.28,84.28,0,0,1,30.829,53.254,82.74,82.74,0,0,1-2.751,36.947,84.72,84.72,0,0,0,2.292-24.462c-2.215-51.459-50.838-89.085-101.134-77.6a82.577,82.577,0,0,0-55.08,42.876c-23.69,46.093,1.224,102.53,50.554,117.727" fill="#fff"/>
        <path id="Path_1580" data-name="Path 1580" d="M339.45,418.467c-12.477-17.836-9.972-44.343,8.582-57.076,23.127-16.041,51.687-8.6,63.722,16.963,3.181,6.455,5.154,13.853,4.431,21.152-.277,3.568-1.567,6.953-1.959,10.413a39.289,39.289,0,0,0,.2,10.115c1.568,9.931,5.986,19.889,13.88,26.325,10.383,8.641,25.621,10.245,37.966,5.125a40.07,40.07,0,0,0,21.354-20.2c4.169-9.361,5.034-19.928,5.56-30.112a136.156,136.156,0,0,0-.847-20.681c-2.84-20.579-10.181-40.582-22.647-57.249-34.9-46.217-99.934-62-151.226-34.076a122.627,122.627,0,0,0-40.648,33.966,126.574,126.574,0,0,0-23.134,47.753c-.567,2.909-1.172,5.822-1.631,8.749-.23,2.033-.633,5.742-.855,7.744-2.577,37.054,14.762,71.516,41.825,96.094,26.327,23.916,62.79,40.485,98.842,34.326-48.184,9.528-100.121-22.149-125.7-61.94-16.56-25.963-22.743-55.579-16.3-85.832.7-2.637,1.507-6.362,2.356-8.912,1.238-4.27,3.063-8.843,4.742-12.982a138.814,138.814,0,0,1,16.37-27.679C289.15,300.79,310.019,285.9,333.1,277.466c53.306-19.564,115.614,2.651,145.722,50.5,9.959,15.783,15.953,34.348,18.246,52.573a139.424,139.424,0,0,1,.673,20.806c-.779,14.3-2.45,29.818-12.147,41.127-14,17.553-42.245,21.516-59.591,6.663-11.087-9.464-16.433-25.259-14.86-39.615.435-3.545,1.744-6.84,2.074-10.311.73-6.814-1-13.531-3.946-19.721-11.25-24.465-38.08-31.774-60.419-16.92-18.353,12.047-21.14,38.2-9.4,55.9" fill="#fff"/>
        <path id="Path_1581" data-name="Path 1581" d="M482.7,189.188a82.583,82.583,0,0,1-44.575,39.788c-30.955,11.731-67.479,3.439-90.3-20.558C325.4,185.8,317.928,149.4,330.13,120.237c-19.161,64.805,39.894,125.382,104.895,105.681,19.664-5.922,36.7-19.46,47.67-36.73" fill="#fff"/>
        <path id="Path_1582" data-name="Path 1582" d="M158.39,71.646a82.579,82.579,0,0,1-44.575,39.788c-30.955,11.73-67.479,3.439-90.3-20.558C1.1,68.259-6.377,31.861,5.825,2.695-13.336,67.5,45.719,128.077,110.72,108.376c19.664-5.922,36.7-19.461,47.67-36.73" fill="#fff"/>
        <path id="Path_1583" data-name="Path 1583" d="M495.67,9.917A9.915,9.915,0,1,1,485.755,0a9.916,9.916,0,0,1,9.915,9.916" fill="#fff"/>
        <path id="Path_1584" data-name="Path 1584" d="M495.67,58.556a9.915,9.915,0,1,1-9.915-9.915,9.915,9.915,0,0,1,9.915,9.915" fill="#fff"/>
        <path id="Path_1585" data-name="Path 1585" d="M495.67,107.2a9.915,9.915,0,1,1-9.915-9.915,9.915,9.915,0,0,1,9.915,9.915" fill="#fff"/>
        <path id="Path_1586" data-name="Path 1586" d="M93.634,315.052a9.915,9.915,0,1,1-9.915-9.915,9.915,9.915,0,0,1,9.915,9.915" fill="#fff"/>
        <path id="Path_1587" data-name="Path 1587" d="M93.634,363.692a9.915,9.915,0,1,1-9.915-9.915,9.915,9.915,0,0,1,9.915,9.915" fill="#fff"/>
        <path id="Path_1588" data-name="Path 1588" d="M93.634,412.332a9.915,9.915,0,1,1-9.915-9.915,9.915,9.915,0,0,1,9.915,9.915" fill="#fff"/>
      </g>
    </g>
    <circle id="Ellipse_54" data-name="Ellipse 54" cx="214" cy="214" r="214" transform="translate(240 6635)" fill="#fff"/>
    <g id="Ellipse_57" data-name="Ellipse 57" transform="translate(689 6650)" fill="#fff" stroke="#707070" stroke-width="1">
      <circle cx="214" cy="214" r="214" stroke="none"/>
      <circle cx="214" cy="214" r="213.5" fill="none"/>
    </g>
    <circle id="Ellipse_56" data-name="Ellipse 56" cx="214" cy="214" r="214" transform="translate(1138 6635)" fill="#fff"/>
    <text id="Video_of_the_artwork_making" data-name="Video of the artwork making" transform="translate(314 6882)" fill="#a6a6a7" font-size="24" font-family="SegoeUI, Segoe UI"><tspan x="0" y="0">Video of the artwork making</tspan></text>
    <text id="GIF_Art_Techniques" data-name="GIF Art Techniques" transform="translate(807 6882)" fill="#a6a6a7" font-size="24" font-family="SegoeUI, Segoe UI"><tspan x="0" y="0">GIF Art Techniques</tspan></text>
    <text id="GIF_Art_Techniques-2" data-name="GIF Art Techniques" transform="translate(1257 6882)" fill="#a6a6a7" font-size="24" font-family="SegoeUI, Segoe UI"><tspan x="0" y="0">GIF Art Techniques</tspan></text>
    <text id="or" transform="translate(881 6817)" fill="#a6a6a7" font-size="24" font-family="SegoeUI, Segoe UI"><tspan x="0" y="0">or</tspan></text>
  </g>
</svg>
