<svg xmlns="http://www.w3.org/2000/svg" xmlns:xlink="http://www.w3.org/1999/xlink" width="105" height="105" viewBox="0 0 105 105">
  <defs>
    <clipPath id="clip-path">
      <rect id="Rectangle_348" data-name="Rectangle 348" width="93.962" height="92.413" fill="none"/>
    </clipPath>
  </defs>
  <g id="Group_712" data-name="Group 712" transform="translate(-1565 -855)">
    <circle id="Ellipse_12" data-name="Ellipse 12" cx="52.5" cy="52.5" r="52.5" transform="translate(1565 855)" fill="#acfeab"/>
    <g id="Group_682" data-name="Group 682" transform="translate(1570.519 861.294)">
      <g id="Group_681" data-name="Group 681" transform="translate(0 -0.001)" clip-path="url(#clip-path)">
        <path id="Path_1396" data-name="Path 1396" d="M4.433,56.121c-9.377-17.226-3.35-41.044,13.1-51.728a51.911,51.911,0,0,0-13.1,51.728" transform="translate(0 7.045)" fill="#fff"/>
        <path id="Path_1397" data-name="Path 1397" d="M56.571,41.977c-17.414,9.606-41.622,3.429-52.3-13.355a51.671,51.671,0,0,0,52.3,13.355" transform="translate(6.854 45.892)" fill="#fff"/>
        <path id="Path_1398" data-name="Path 1398" d="M11.009,4.687c15.073-8.43,35.429-5.139,47.545,7.05a41.386,41.386,0,0,1,4.605,5.608A51.716,51.716,0,0,0,11.009,4.687" transform="translate(17.651 0)" fill="#fff"/>
        <path id="Path_1399" data-name="Path 1399" d="M26.305,54.57C-1.728,47.335,5.544,6.744,34.162,8.577,48.538,9.345,59.354,25.1,54.4,38.661c4.277-18.827-15.93-34.4-32.612-24.831C4.994,23.231,7.936,48.556,26.305,54.57" transform="translate(13.812 13.657)" fill="#fff"/>
        <path id="Path_1400" data-name="Path 1400" d="M29.727,45.277A11.312,11.312,0,0,1,37.4,27.368C45.714,25.7,53.2,35.29,50.431,43a11.264,11.264,0,0,0,.768,5.227A9.52,9.52,0,0,0,64,53.774c7.44-2.778,7.378-12.663,6.74-18.741A32.055,32.055,0,0,0,47.274,8.057C28.418,2.426,7.661,17.728,6.469,37.149,5.287,56.518,24.992,74.788,44.243,72.273c-19.863,3.561-40.578-15.1-39.7-35.231C5.316,16.07,27.754-.279,47.945,5.589A34.3,34.3,0,0,1,73.073,34.7c.8,7.446.174,18.072-8.276,21.058-5.889,2.5-13.412-.69-15.237-6.92a12.9,12.9,0,0,1-.732-6.048c2.71-7.058-3.77-15.6-11.291-14.477-8.182.732-12.324,10.174-7.81,16.958" transform="translate(7.24 7.028)" fill="#fff"/>
        <path id="Path_1401" data-name="Path 1401" d="M60.227,35.475C52.1,53.448,25.233,51.9,18.425,33.66a22,22,0,0,1,.341-16.924,23.386,23.386,0,0,0-.594,8.294c1.9,21.7,29.936,28.387,42.054,10.445" transform="translate(27.099 26.835)" fill="#fff"/>
        <path id="Path_1402" data-name="Path 1402" d="M37.9,11.916A2.694,2.694,0,1,1,35.2,9.222,2.693,2.693,0,0,1,37.9,11.916" transform="translate(52.123 14.787)" fill="#fff"/>
        <path id="Path_1403" data-name="Path 1403" d="M39.411,16.993A2.694,2.694,0,1,1,36.716,14.3a2.693,2.693,0,0,1,2.694,2.694" transform="translate(54.548 22.927)" fill="#fff"/>
        <path id="Path_1404" data-name="Path 1404" d="M39.1,22.071a2.694,2.694,0,1,1-2.694-2.694A2.693,2.693,0,0,1,39.1,22.071" transform="translate(54.058 31.069)" fill="#fff"/>
      </g>
    </g>
  </g>
</svg>
