<svg xmlns="http://www.w3.org/2000/svg" xmlns:xlink="http://www.w3.org/1999/xlink" width="78" height="78" viewBox="0 0 78 78">
  <defs>
    <clipPath id="clip-path">
      <rect id="Rectangle_153" data-name="Rectangle 153" width="78" height="78" transform="translate(-0.036 0.062)" fill="none"/>
    </clipPath>
  </defs>
  <g id="Group_338" data-name="Group 338" transform="translate(0.036 -0.062)">
    <g id="Group_337" data-name="Group 337" transform="translate(0 0)" clip-path="url(#clip-path)">
      <path id="Path_525" data-name="Path 525" d="M77.964,39.064a39,39,0,1,1-39-39,38.955,38.955,0,0,1,39,39" transform="translate(0 -0.002)" fill="#fff"/>
      <path id="Path_526" data-name="Path 526" d="M34.009,6.52a35.627,35.627,0,0,0-32,0,25.963,25.963,0,0,1,32,0" transform="translate(20.955 6.541)" fill="#fe1295"/>
      <path id="Path_527" data-name="Path 527" d="M11.834,32.638c-23.38-10.539-.561-43.938,18-26,4.5,4.539,4.822,12.546,2,18,2.085-5.746,1.145-12.906-3-17-17.417-15.231-37.379,13.711-17,25" transform="translate(21.13 21.424)" fill="#fe1295"/>
      <path id="Path_528" data-name="Path 528" d="M30.9,20.045c-6.891,11.417-24.063,6.8-27-6-1.233-3.75-1.187-7.847,1-11-6.191,15.637,14.24,30.387,26,17" transform="translate(34.065 36.016)" fill="#fe1295"/>
      <path id="Path_529" data-name="Path 529" d="M2,4.705a35.707,35.707,0,0,0,32,0,25.981,25.981,0,0,1-32,0" transform="translate(20.967 60.356)" fill="#fe1295"/>
      <path id="Path_530" data-name="Path 530" d="M3.381,4.181c3.674,3.712,8.673,6.822,14,7-5.441.483-10.741-1.618-15-5l1-2" transform="translate(22.583 50.88)" fill="#fe1295"/>
      <path id="Path_531" data-name="Path 531" d="M10.564,42.792c-.229,0,.191.165,0,0-6.357-5.594-9.9-13.55-9-21a25.339,25.339,0,0,1,9-16,23.462,23.462,0,0,1,17-4,23.653,23.653,0,0,1,18,13c1.538,3.2,3.076,6.326,3,10a41.713,41.713,0,0,1-2,8c-.432,1.17-.428,2.288-1,3a8.056,8.056,0,0,1-3,2,8.577,8.577,0,0,1-6,1,7.874,7.874,0,0,1-4-2c-1.589-1.615-1.86-4.3-2-5a7.693,7.693,0,0,1,0-3c.089-.953-.153-1.453,0-2s.975-1.237,1-2c.025-.381-.771-1.021-1-2-.394-1.487-.826-3.1-3-4-1.246-.521-2.551-1.343-4-1-1.564.343-3.11,1.907-4,3-.331.42-.619.331-1,0-.407-.331-1.318-1.593-1-2,1.17-1.462,3.042-1.555,5-2,1.882-.42,3.385-.661,5,0a9.4,9.4,0,0,1,5,6,4.01,4.01,0,0,1,0,2c-.064.979.153,2.4,0,3-.14.521.089.212,0,1a10.158,10.158,0,0,0,0,3c.14.623-.208,1.792,1,3a6.836,6.836,0,0,0,3,2,7.577,7.577,0,0,0,5-1,7.669,7.669,0,0,0,2-2,7.122,7.122,0,0,0,1-2,51.449,51.449,0,0,0,2-7,22.641,22.641,0,0,0-2-10c-3.089-6.433-9.931-10.047-17-11a22.253,22.253,0,0,0-16,4,21.15,21.15,0,0,0-8,14c-.814,6.814,2.1,13.8,8,19a1.946,1.946,0,0,1,0,2c-.2.216-.733,0-1,0" transform="translate(14.4 14.27)" fill="#fe1295"/>
      <path id="Path_532" data-name="Path 532" d="M5.388,14.211c-2.555-2.7-4.581-8.25-2-12l2,2c-2.454,2.4-2.123,6.86,0,10h0" transform="translate(28.576 30.851)" fill="#fe1295"/>
      <path id="Path_533" data-name="Path 533" d="M8.423,3.924c0,.8-1.2,1-2,1s-1-.2-1-1,.2-2,1-2a2.567,2.567,0,0,1,2,2" transform="translate(61.542 27.138)" fill="#fe1295"/>
      <path id="Path_534" data-name="Path 534" d="M8.275,4.4c0,.8-.2,1-1,1s-2-.2-2-1,1.2-1,2-1,1,.2,1,1" transform="translate(62.69 34.657)" fill="#fe1295"/>
      <path id="Path_535" data-name="Path 535" d="M8.423,4.9a2.567,2.567,0,0,1-2,2c-.8,0-1-1.2-1-2s.2-1,1-1,2,.2,2,1" transform="translate(61.542 42.166)" fill="#fe1295"/>
      <path id="Path_536" data-name="Path 536" d="M6.51,2.1a35.707,35.707,0,0,0,0,32,25.981,25.981,0,0,1,0-32" transform="translate(6.454 20.965)" fill="#fe1295"/>
    </g>
  </g>
</svg>
