<svg id="Group_1994" data-name="Group 1994" xmlns="http://www.w3.org/2000/svg" xmlns:xlink="http://www.w3.org/1999/xlink" width="162.87" height="199.495" viewBox="0 0 162.87 199.495">
  <defs>
    <clipPath id="clip-path">
      <rect id="Rectangle_979" data-name="Rectangle 979" width="162.87" height="199.495" fill="none"/>
    </clipPath>
  </defs>
  <g id="Group_1995" data-name="Group 1995" clip-path="url(#clip-path)">
    <path id="Path_2170" data-name="Path 2170" d="M0,81.435A81.435,81.435,0,1,0,81.435,0,81.435,81.435,0,0,0,0,81.435" fill="#fe1195"/>
    <path id="Path_2171" data-name="Path 2171" d="M87.649,113.407c-3.209,11.3-16.007,18.427-27.408,16.317a21.661,21.661,0,0,1-10.3-4.592c7.015,1.437,13.8,1.669,20.531-.449,6.744-2.073,12.205-6.12,17.172-11.275" transform="translate(-18.217 -41.364)" fill="#fff"/>
    <path id="Path_2172" data-name="Path 2172" d="M149.065,113.407c4.965,5.155,10.429,9.2,17.172,11.275,6.734,2.119,13.515,1.886,20.531.449a21.664,21.664,0,0,1-10.3,4.592c-11.4,2.111-24.2-5.016-27.408-16.317" transform="translate(-54.37 -41.364)" fill="#fff"/>
    <path id="Path_2173" data-name="Path 2173" d="M72.693,181.781a74.994,74.994,0,0,1,67.811-.332,106.877,106.877,0,0,0-67.811.332" transform="translate(-26.514 -63.287)"/>
    <path id="Path_2174" data-name="Path 2174" d="M113.6,214.183a19.307,19.307,0,0,0-2.242,8.153,18.583,18.583,0,0,0,.384,4.614,18.183,18.183,0,0,0,1.666,4.614c.026,4.893-.043,11.944-.513,19.737a15.754,15.754,0,0,1-2.051,7.562,12.864,12.864,0,0,1-5.768,5.255,14.794,14.794,0,0,1-5.768,1.025c-3.355.167-5.3.264-7.177-.9-2.772-1.713-3.514-5-3.716-6.152a91.754,91.754,0,0,1,.9-14.1c.415-2.913.885-5.174,4.1-19.224.732-3.2,1.349-5.884,1.794-7.818a37.006,37.006,0,0,0,2.82-3.716,38.511,38.511,0,0,0,3.076-5.639c2.552-5.672,4.831-10.733,5.127-17.3.191-4.233-.516-6.285,1.153-8.074,2.11-2.26,6.05-1.957,6.2-1.937a.4.4,0,0,1,.245.118.393.393,0,0,1,.067.281c-.022.262-.14,14.077-.3,33.5" transform="translate(-32.247 -65.748)" fill="#acfeab"/>
    <path id="Path_2175" data-name="Path 2175" d="M129.782,214.183a19.308,19.308,0,0,1,2.242,8.153,18.583,18.583,0,0,1-.384,4.614,18.183,18.183,0,0,1-1.666,4.614c-.026,4.893.043,11.944.513,19.737a15.754,15.754,0,0,0,2.051,7.562,12.865,12.865,0,0,0,5.768,5.255,14.794,14.794,0,0,0,5.768,1.025c3.355.167,5.3.264,7.177-.9,2.772-1.713,3.514-5,3.716-6.152a91.755,91.755,0,0,0-.9-14.1c-.415-2.913-.885-5.174-4.1-19.224-.732-3.2-1.349-5.884-1.794-7.818a37.008,37.008,0,0,1-2.82-3.716,38.513,38.513,0,0,1-3.076-5.639c-2.552-5.672-4.831-10.733-5.127-17.3-.191-4.233.516-6.285-1.153-8.074-2.11-2.26-6.05-1.957-6.2-1.937a.4.4,0,0,0-.245.118.393.393,0,0,0-.067.281c.022.262.14,14.077.3,33.5" transform="translate(-47.228 -65.748)" fill="#acfeab"/>
  </g>
</svg>
