<svg xmlns="http://www.w3.org/2000/svg" xmlns:xlink="http://www.w3.org/1999/xlink" width="29.448" height="34" viewBox="0 0 29.448 34">
  <defs>
    <clipPath id="clip-path">
      <rect id="Rectangle_126" data-name="Rectangle 126" width="29.448" height="34" fill="#828085"/>
    </clipPath>
  </defs>
  <g id="Group_731" data-name="Group 731" transform="translate(-47 -522)">
    <g id="Group_305" data-name="Group 305" transform="translate(47 522)">
      <g id="Group_304" data-name="Group 304" clip-path="url(#clip-path)">
        <path id="Path_411" data-name="Path 411" d="M25.97,15.005H3.489a1,1,0,1,1,0-2H25.97a1,1,0,0,1,0,2" fill="#828085"/>
        <path id="Path_412" data-name="Path 412" d="M24.282,19.533h-1.3a1,1,0,0,1,0-2h1.3a1,1,0,0,1,0,2" fill="#828085"/>
        <path id="Path_413" data-name="Path 413" d="M21.149,19.533H5.176a1,1,0,0,1,0-2H21.149a1,1,0,0,1,0,2" fill="#828085"/>
        <path id="Path_414" data-name="Path 414" d="M24.138,26.455H5.177a1,1,0,0,1,0-2H24.138a1,1,0,0,1,0,2" fill="#828085"/>
        <path id="Path_415" data-name="Path 415" d="M25.97,30.846H3.489a1,1,0,0,1,0-2H25.97a1,1,0,1,1,0,2" fill="#828085"/>
        <path id="Path_416" data-name="Path 416" d="M14.728,19.28a1,1,0,0,1-1-1V14.214a1,1,0,0,1,2,0V18.28a1,1,0,0,1-1,1" fill="#828085"/>
        <path id="Path_417" data-name="Path 417" d="M14.728,30.846a1,1,0,0,1-1-1V20.759a1,1,0,0,1,2,0v9.087a1,1,0,0,1-1,1" fill="#828085"/>
        <path id="Path_418" data-name="Path 418" d="M14.728,4.313a1,1,0,0,1-1-1V1a1,1,0,0,1,2,0V3.313a1,1,0,0,1-1,1" fill="#828085"/>
        <path id="Path_419" data-name="Path 419" d="M8.26,26.3a1,1,0,0,1-1-1V15.819a1,1,0,1,1,2,0V25.3a1,1,0,0,1-1,1" fill="#828085"/>
        <path id="Path_420" data-name="Path 420" d="M8.26,30.846a1,1,0,0,1-1-1V26.869a1,1,0,0,1,2,0v2.977a1,1,0,0,1-1,1" fill="#828085"/>
        <path id="Path_421" data-name="Path 421" d="M21.305,24.711a1,1,0,0,1-1-1V15.818a1,1,0,1,1,2,0v7.893a1,1,0,0,1-1,1" fill="#828085"/>
        <path id="Path_422" data-name="Path 422" d="M21.305,27.811a1,1,0,0,1-1-1V25.455a1,1,0,0,1,2,0v1.356a1,1,0,0,1-1,1" fill="#828085"/>
        <path id="Path_423" data-name="Path 423" d="M24.282,26.455a1,1,0,0,1-1-1v-6.74a1,1,0,0,1,2,0v6.74a1,1,0,0,1-1,1" fill="#828085"/>
        <path id="Path_424" data-name="Path 424" d="M24.282,34a1,1,0,0,1-1-1V29.928a1,1,0,0,1,2,0V33a1,1,0,0,1-1,1" fill="#828085"/>
        <path id="Path_425" data-name="Path 425" d="M5.177,26.379a1,1,0,0,1-1-1V18.805a1,1,0,0,1,2,0v6.574a1,1,0,0,1-1,1" fill="#828085"/>
        <path id="Path_426" data-name="Path 426" d="M5.177,34a1,1,0,0,1-1-1V30.016a1,1,0,0,1,2,0V33a1,1,0,0,1-1,1" fill="#828085"/>
        <path id="Path_427" data-name="Path 427" d="M1,14.4a1,1,0,0,1-.579-1.816L14.265,2.774a1,1,0,0,1,1.156,1.631L1.578,14.219A1,1,0,0,1,1,14.4" fill="#828085"/>
        <path id="Path_428" data-name="Path 428" d="M28.447,14.4a1,1,0,0,1-.577-.184L14.027,4.405a1,1,0,0,1,1.156-1.631l13.843,9.813a1,1,0,0,1-.579,1.816" fill="#828085"/>
        <rect id="Rectangle_122" data-name="Rectangle 122" width="1.37" height="1.37" transform="translate(13.103 6.583)" fill="#828085"/>
        <rect id="Rectangle_123" data-name="Rectangle 123" width="1.37" height="1.37" transform="translate(14.976 6.583)" fill="#828085"/>
        <rect id="Rectangle_124" data-name="Rectangle 124" width="1.37" height="1.37" transform="translate(13.103 8.491)" fill="#828085"/>
        <rect id="Rectangle_125" data-name="Rectangle 125" width="1.37" height="1.37" transform="translate(14.976 8.491)" fill="#828085"/>
      </g>
    </g>
  </g>
</svg>
