<svg id="Group_1238" data-name="Group 1238" xmlns="http://www.w3.org/2000/svg" xmlns:xlink="http://www.w3.org/1999/xlink" width="339.551" height="281.902" viewBox="0 0 339.551 281.902">
  <defs>
    <clipPath id="clip-path">
      <rect id="Rectangle_605" data-name="Rectangle 605" width="339.551" height="281.902" fill="#fe1295"/>
    </clipPath>
  </defs>
  <g id="Group_1237" data-name="Group 1237" clip-path="url(#clip-path)">
    <path id="Path_2023" data-name="Path 2023" d="M170.621,227.14c-12.426-.466-23.755-2.021-34.494-6.416a7.866,7.866,0,0,0-7.7.655c-6.345,3.72-12.826,7.209-19.26,10.776-3.191,1.769-6.534,2.97-9.8.439-3.234-2.509-3.629-6.051-2.791-9.842,1.616-7.306,3.168-14.628,4.872-21.914a4.713,4.713,0,0,0-1.183-4.717c-15.452-17.488-23.16-38.166-23.248-61.306-.175-46.28,30.681-83.553,74.433-91.64,32.845-6.071,61.923,2.343,85.492,26.548,15.927,16.357,24.09,36.39,25.14,59.309,1.316,28.711-7.925,53.31-28.806,73.091-15.671,14.844-34.557,22.853-56.115,24.413-2.482.18-4.958.457-6.539.6m-.883-76.1a17.085,17.085,0,0,0,16.949-16.883,16.969,16.969,0,1,0-33.937.047,17.063,17.063,0,0,0,16.988,16.836m30.08-16.874a16.747,16.747,0,1,0,33.491-.137,16.748,16.748,0,1,0-33.491.137m-93.686-.008a16.742,16.742,0,1,0,33.482-.113,16.9,16.9,0,0,0-16.808-17c-9.144-.058-16.685,7.681-16.674,17.111" fill="#fe1295"/>
    <path id="Path_2024" data-name="Path 2024" d="M165.579,246.483c35.612,1.1,63.353-11.287,86.305-35a109.072,109.072,0,0,0,22.449-35.162c2.487-6.1,2.533-12.69,3.638-19.062,1.362-7.863,2.3-15.8,3.672-23.662,1.416-8.083.173-16-1.789-23.69C267.72,62.35,237.706,32.414,189.678,23,130.2,11.342,72.206,50.43,59.088,111.063c-2.816,13.013-.774,25.491,1.13,38.172,2.26,15.047,4.5,30.1,6.556,45.174.935,6.861-1.587,11.18-7.909,13.613-19.726,7.592-34.174,5.04-47.338-14.853C4.11,181.962.95,169.385.167,156.022c-.785-13.394,1.123-26.214,7.515-38.042,5.762-10.665,14.476-18.005,26.385-21.159a4,4,0,0,1,1.443-.353c5.116.788,6.407-2.4,7.961-6.52C62.031,40.73,97.1,10.637,148.909,1.85c64.252-10.9,126.656,27.329,147.437,89.176,1.144,3.4,2.336,5.26,6.434,5.608,12.357,1.048,21.266,7.805,27.491,18.349,14.546,24.64,11.721,61.965-6.566,83.958-6.81,8.189-15.229,13.705-26.434,13.229-4.517-.191-8.8-1.75-13.076-3.049-2.4-.727-3.6-.018-4.937,1.871q-27.8,39.19-74.011,52.264c-2.5.706-3.2,2.022-3.509,4.452-1.131,9.014-5.319,13.38-14.286,13.746a321.874,321.874,0,0,1-37.389-.191c-6.511-.493-10.94-4.978-12.111-11.357a32.464,32.464,0,0,1-.294-9.705c1.028-8.7,6.127-13.415,14.895-13.689,5.108-.16,10.228-.029,13.026-.029" fill="#fe1295"/>
  </g>
</svg>
