<svg xmlns="http://www.w3.org/2000/svg" width="314.743" height="168.593" viewBox="0 0 314.743 168.593">
  <path id="Path_1968" data-name="Path 1968" d="M25.145,11.485c-8.532,0-11.867.8-11.867,6.86l-.186,115.367c0,6.05,4.033,8.067,12.56,8.074l127.633-.006a26.081,26.081,0,0,1,11.7,2.666l92.651,32.994V164.8c.063-6.359.061.392,0-12.61s7.773-10.551,16.86-10.724h39.856c4.131,0,5.608.246,8.559-1.826s2.924-6.2,2.924-9.153l-.174-111.079c0-6.058-4.152-8.146-12.684-8.146Z" transform="translate(-12.092 -10.267)" fill="none" stroke="#fff" stroke-width="2"/>
</svg>
